<?xml version="1.0" encoding="UTF-8"?><svg id="Layer_1" xmlns="http://www.w3.org/2000/svg" width="56.75" height="56.75" viewBox="0 0 56.75 56.75"><defs><style>.cls-1{fill:#fff;}</style></defs><path class="cls-1" d="M28.376,56.75c15.671,0,28.375-12.705,28.374-28.376C56.749,12.703,44.045,0,28.374,0,12.703,0,0,12.704,0,28.375c0,15.671,12.704,28.375,28.375,28.375h0m0-4c-13.46,0-24.371-10.911-24.371-24.371S14.916,4.008,28.376,4.008c13.458,0,24.369,10.909,24.371,24.367-.016,13.453-10.918,24.355-24.371,24.371"/><path class="cls-1" d="M16.996,19.49h9.822c.9-.004,1.633,.723,1.637,1.623,0,.005,0,.009,0,.014v10.44c-.013,.301,.221,.556,.522,.569,.301,.013,.556-.221,.569-.522,0-.016,0-.031,0-.047v-10.44c-.004-.9,.723-1.633,1.623-1.637,.005,0,.009,0,.014,0h9.823v17.461h-9.823c-.856,.01-1.661,.413-2.182,1.092-.516-.686-1.324-1.09-2.183-1.092h-9.822V19.49Zm25.1,1.091v-1.637c-.007-.298-.248-.539-.546-.546h-10.367c-.856,.01-1.661,.413-2.182,1.092-.516-.686-1.324-1.09-2.183-1.092h-10.368c-.298,.007-.539,.248-.546,.546v1.637h-1.091v18.556h11.75c1.201,1.346,3.265,1.464,4.611,.264,.093-.083,.181-.171,.264-.264h11.75V20.581h-1.092Z"/></svg>