<?xml version="1.0" encoding="UTF-8"?><svg id="Layer_1" xmlns="http://www.w3.org/2000/svg" width="56.75" height="56.75" viewBox="0 0 56.75 56.75"><defs><style>.cls-1{fill:#fff;}</style></defs><path class="cls-1" d="M28.376,56.75c15.671,0,28.375-12.705,28.374-28.376C56.749,12.703,44.045,0,28.374,0,12.703,0,0,12.704,0,28.375c0,15.671,12.704,28.375,28.375,28.375h0m0-4c-13.46,0-24.371-10.911-24.371-24.371S14.916,4.008,28.376,4.008c13.458,0,24.369,10.909,24.371,24.367-.016,13.453-10.918,24.355-24.371,24.371"/><path class="cls-1" d="M28.68,44.72c-3.584-1.88-6.6-4.685-8.735-8.123l22.683-12.949c-1.03,6.021-4.2,16.31-13.948,21.07m.394-31.821c2.617,3.147,6.157,5.39,10.12,6.413l-21.726,12.401c-1.505-3.879-2.373-7.977-2.57-12.133,5.449-.159,10.585-2.58,14.176-6.681m15.025,5.156c-5.623,.009-10.907-2.687-14.2-7.244-.281-.448-.872-.583-1.319-.302-.115,.072-.213,.168-.289,.282-3.428,4.444-8.759,7-14.37,6.89-.523-.002-.952,.416-.962,.939,.041,3.755,.626,7.483,1.737,11.07,2.432,7.916,7.114,13.778,13.547,16.954,.26,.128,.564,.132,.827,.01,6.51-3.016,11.336-8.76,13.957-16.613,1.199-3.557,1.876-7.268,2.011-11.019,.002-.523-.416-.952-.939-.962"/></svg>