<?xml version="1.0" encoding="UTF-8"?><svg id="Layer_1" xmlns="http://www.w3.org/2000/svg" width="56.75" height="56.75" viewBox="0 0 56.75 56.75"><defs><style>.cls-1{fill:#fff;}</style></defs><path class="cls-1" d="M28.376,56.75c15.671,0,28.375-12.705,28.374-28.376C56.749,12.703,44.045,0,28.374,0,12.703,0,0,12.704,0,28.375c0,15.671,12.704,28.375,28.375,28.375h0m0-4c-13.46,0-24.371-10.911-24.371-24.371S14.916,4.008,28.376,4.008c13.458,0,24.369,10.909,24.371,24.367-.016,13.453-10.918,24.355-24.371,24.371"/><path class="cls-1" d="M32.743,25.638l-6.608,6.608c-2.467,2.473-2.467,6.477,0,8.95l3.513,3.513,3.806-3.806c1.257-1.259,1.925-2.99,1.84-4.767-1.475-.346-2.822-1.1-3.889-2.175l-2.551-2.551c.719-.739,1.901-.755,2.64-.036l.036,.036,1.213,1.208c2.473,2.467,6.477,2.467,8.95,0l3.513-3.513-3.513-3.514c-2.493-2.435-6.48-2.416-8.95,.042m-.878-.878c2.467-2.473,2.467-6.477,0-8.95l-3.513-3.513-3.513,3.513c-2.468,2.473-2.468,6.477,0,8.95l1.213,1.213c.739,.719,.755,1.901,.036,2.64l-.036,.036-2.551-2.546c-1.07-1.071-1.824-2.417-2.177-3.889-1.777-.085-3.508,.583-4.768,1.84l-3.762,3.806,3.513,3.513c2.473,2.468,6.477,2.468,8.95,0l6.608-6.613Z"/></svg>